<svg width="11" height="14" viewBox="0 0 11 14" fill="none" xmlns="http://www.w3.org/2000/svg">
<path d="M8.43581 4.88864C7.71247 4.09531 7.02997 3.34864 7.02414 1.74447C7.02414 1.52864 6.90164 1.33031 6.71497 1.23114C6.52247 1.13197 6.29497 1.14364 6.11414 1.26031C4.51581 2.33364 3.65247 3.45947 3.19164 5.18614C3.08664 5.00531 2.99331 4.78364 2.93497 4.52697C2.88831 4.32281 2.73081 4.15947 2.52664 4.10114C2.32247 4.04281 2.10664 4.10114 1.95497 4.24697C1.20247 4.99947 0.619141 6.97114 0.619141 8.16697C0.619141 11.1303 2.32247 12.8278 5.28581 12.8278C8.24914 12.8278 9.95247 11.0836 9.95247 8.16114C9.95247 6.53947 9.14747 5.65864 8.43581 4.88281V4.88864Z" stroke="#FFFFFF"/>
</svg>
