<svg width="24" height="24" viewBox="0 0 24 24" fill="none" xmlns="http://www.w3.org/2000/svg">
<g clip-path="url(#clip0_714_791)">
<path d="M10.0007 13L10.3953 12.693L10.3952 12.6928L10.3947 12.6922L10.3928 12.6898L10.3854 12.6803L10.3563 12.6428L10.2434 12.4977L9.82314 11.9574L8.39031 10.1155C7.24301 8.64075 5.80579 6.7936 4.64585 5.30368C4.39141 4.97347 4.62486 4.5 5.04067 4.5H18.9507C19.3812 4.5 19.607 4.97719 19.3555 5.30366C18.1956 6.79359 16.7583 8.64074 15.611 10.1155L14.1782 11.9574L13.7579 12.4977L13.6451 12.6428L13.6159 12.6803L13.6085 12.6898L13.6066 12.6922L13.6061 12.6928L13.606 12.693L14.0007 13L13.606 12.693L13.5007 12.8284V13V18C13.5007 18.8239 12.8245 19.5 12.0007 19.5C11.1768 19.5 10.5007 18.8239 10.5007 18V13V12.8284L10.3953 12.693L10.0007 13Z" stroke="#513DEB"/>
</g>
<defs>
<clipPath id="clip0_714_791">
<rect width="24" height="24" fill="white"/>
</clipPath>
</defs>
</svg>
