<svg width="15" height="16" viewBox="0 0 15 16" fill="none" xmlns="http://www.w3.org/2000/svg">
<path d="M3.32437 9.56406L2.80223 11.5132L0.893832 11.5536C0.323501 10.4958 0 9.28551 0 7.99941C0 6.75575 0.302465 5.58296 0.838606 4.55029H0.839016L2.53803 4.86177L3.28229 6.55053C3.12652 7.00465 3.04162 7.49214 3.04162 7.99941C3.04168 8.54994 3.1414 9.07742 3.32437 9.56406Z" fill="#FBBB00"/>
<path d="M14.8692 6.59863C14.9554 7.05232 15.0003 7.52085 15.0003 7.9997C15.0003 8.53664 14.9438 9.0604 14.8363 9.56562C14.4712 11.2848 13.5171 12.786 12.1956 13.8484L12.1952 13.8479L10.0552 13.7388L9.7523 11.8481C10.6292 11.3339 11.3145 10.5291 11.6755 9.56562H7.66504V6.59863H11.7341H14.8692Z" fill="#518EF8"/>
<path d="M12.1948 13.8485L12.1952 13.8489C10.9099 14.882 9.27718 15.5001 7.49983 15.5001C4.64361 15.5001 2.16034 13.9037 0.893555 11.5545L3.32409 9.56494C3.95747 11.2553 5.58812 12.4586 7.49983 12.4586C8.32153 12.4586 9.09135 12.2364 9.75192 11.8487L12.1948 13.8485Z" fill="#28B446"/>
<path d="M12.2877 2.22661L9.85795 4.21571C9.1743 3.78839 8.36616 3.54154 7.50037 3.54154C5.54539 3.54154 3.88423 4.80002 3.28258 6.55098L0.839277 4.55074H0.838867C2.08711 2.1442 4.6017 0.5 7.50037 0.5C9.32017 0.5 10.9887 1.14821 12.2877 2.22661Z" fill="#F14336"/>
</svg>
