<svg width="37" height="36" viewBox="0 0 37 36" fill="none" xmlns="http://www.w3.org/2000/svg">
<path d="M6.5404 27.4935C6.77577 28.9156 8.01124 30 9.5 30H27.5C29.1569 30 30.5 28.6569 30.5 27V21.2852M6.5404 27.4935C6.51383 27.333 6.5 27.1681 6.5 27V9C6.5 7.34315 7.84315 6 9.5 6H27.5C29.1569 6 30.5 7.34315 30.5 9V21.2852M6.5404 27.4935L12.2714 21.7625C13.2915 20.87 14.7833 20.7722 15.911 21.5241L16.6747 22.0332C17.7618 22.7579 19.1928 22.6958 20.2129 21.8797L24.1852 18.7019C25.1976 17.8919 26.6079 17.8284 27.6842 18.5226C27.8035 18.5996 27.9096 18.6949 28.01 18.7953L30.5 21.2852M17 13.5C17 15.1569 15.6569 16.5 14 16.5C12.3431 16.5 11 15.1569 11 13.5C11 11.8431 12.3431 10.5 14 10.5C15.6569 10.5 17 11.8431 17 13.5Z" stroke="#292929" stroke-width="0.6" stroke-linecap="round" stroke-linejoin="round"/>
</svg>
