<svg width="68" height="73" viewBox="0 0 68 73" fill="none" xmlns="http://www.w3.org/2000/svg">
<g clip-path="url(#clip0_868_5163)">
<path d="M6.38054 62.8855L1.62467 64.6446L6.38054 66.4036V67.8402L0 65.3775V63.9116L6.38054 61.449V62.8855ZM23.2476 62.8269C22.6568 62.3285 21.8297 62.0647 20.7367 62.0647C20.146 62.0647 19.5552 62.1526 19.0235 62.2992C18.4917 62.4458 18.0191 62.6803 17.6351 62.9735L18.3145 64.2341C18.5804 63.9996 18.9053 63.8237 19.3189 63.7064C19.7029 63.5598 20.1164 63.5012 20.53 63.5012C21.1503 63.5012 21.6229 63.6478 21.9183 63.9116C22.2433 64.1755 22.391 64.5859 22.391 65.0843V65.1723H20.4709C19.4075 65.1723 18.6394 65.3482 18.1373 65.7586C17.6351 66.1691 17.3988 66.6968 17.3988 67.3418C17.3988 67.7815 17.4874 68.1627 17.7237 68.4851C17.96 68.837 18.285 69.1008 18.6985 69.2767C19.1121 69.4819 19.5847 69.5699 20.146 69.5699C20.7072 69.5699 21.1798 69.4819 21.5639 69.306C21.9774 69.1301 22.2728 68.8956 22.4796 68.5731V69.4526H24.1043V65.1723C24.1043 64.1169 23.8089 63.3546 23.2476 62.8269ZM22.391 67.1659C22.2433 67.547 22.007 67.8108 21.682 68.0161C21.3275 68.2213 20.9435 68.3092 20.53 68.2799C20.0869 68.2799 19.7324 68.192 19.4961 68.0161C19.2302 67.8402 19.1121 67.6056 19.1121 67.2831C19.1121 66.6382 19.6143 66.3157 20.6186 66.3157H22.391V67.1659ZM31.1347 62.0647V63.7064C30.987 63.6771 30.8393 63.6771 30.7211 63.6771C30.0417 63.6771 29.51 63.8823 29.1555 64.2635C28.7715 64.6446 28.5943 65.2016 28.5943 65.9345V69.4819H26.881V62.1526H28.5352V63.2373C29.0078 62.4458 29.894 62.0647 31.1347 62.0647ZM39.8488 63.853C39.4944 63.296 39.0217 62.8562 38.4309 62.5337C37.8401 62.2112 37.1607 62.0647 36.3927 62.0647C35.6542 62.0647 34.9748 62.2112 34.384 62.5337C33.7932 62.8562 33.3206 63.296 32.9957 63.853C32.6707 64.41 32.4935 65.055 32.4935 65.7879C32.4935 66.4916 32.6707 67.1365 32.9957 67.7229C33.3206 68.3092 33.7932 68.749 34.384 69.0715C35.0043 69.394 35.6542 69.5699 36.3927 69.5406C37.1607 69.5406 37.8401 69.394 38.4309 69.0715C39.0513 68.749 39.5239 68.2799 39.8488 67.7229C40.1738 67.1659 40.351 66.5209 40.351 65.7879C40.351 65.055 40.1738 64.41 39.8488 63.853ZM37.9878 67.459C37.5743 67.8695 37.0426 68.104 36.4222 68.104C35.8019 68.104 35.2702 67.8695 34.8566 67.459C34.4431 67.0193 34.2363 66.4622 34.2363 65.7879C34.2363 65.0843 34.4431 64.5273 34.8566 64.1169C35.2702 63.6771 35.7724 63.4719 36.4222 63.4719C37.0426 63.4719 37.5743 63.7064 37.9878 64.1169C38.4014 64.5566 38.6082 65.1137 38.6082 65.7879C38.6082 66.4916 38.4014 67.0486 37.9878 67.459ZM49.2719 62.1526L46.1112 69.4819H44.3388L41.1781 62.1526H42.98L45.2841 67.5763L47.6473 62.1526H49.2719ZM50.8966 62.1526V69.4819H52.6099V62.1526H50.8966ZM52.5804 59.1623C52.3441 58.957 52.1077 58.8691 51.7828 58.8691C51.4579 58.8691 51.192 58.957 50.9852 59.1623C50.7785 59.3675 50.6603 59.602 50.6603 59.8952C50.6603 60.1884 50.7785 60.4229 50.9852 60.6281C51.192 60.8333 51.4579 60.9213 51.7828 60.9506C52.1077 60.9506 52.3736 60.8333 52.5804 60.6281C52.7871 60.4229 52.9053 60.159 52.9053 59.8659C52.9053 59.5727 52.7871 59.3382 52.5804 59.1623ZM59.8766 69.0715C59.6699 69.2474 59.4335 69.3647 59.1381 69.4526C58.8427 69.5406 58.5474 69.5699 58.2224 69.5699C57.4249 69.5699 56.775 69.3647 56.3319 68.9249C55.8888 68.4851 55.682 67.8988 55.682 67.0779V63.5598H54.4709V62.1819H55.682V60.5108H57.3953V62.1819H59.3745V63.5598H57.3953V67.0486C57.3953 67.4004 57.4839 67.6643 57.6612 67.8695C57.8384 68.0454 58.1043 68.1627 58.4292 68.1627C58.8132 68.1627 59.1381 68.0747 59.404 67.8695L59.8766 69.0715ZM68 63.9116V65.4068L61.6195 67.8695V66.4329L66.3753 64.6739L61.6195 62.9149V61.4783L68 63.9116ZM13.2633 72.6775C13.47 72.4723 13.5882 72.1791 13.5882 71.8566C13.5882 71.5341 13.47 71.2703 13.2337 71.0357C12.9974 70.8305 12.7315 70.7132 12.3771 70.7132C12.0521 70.7132 11.7567 70.8305 11.5204 71.0357C11.2841 71.241 11.1659 71.5341 11.1659 71.8566C11.1659 72.1791 11.2841 72.4723 11.5204 72.6775C11.7567 72.8827 12.0521 73 12.4066 73C12.7611 73 13.0269 72.8827 13.2633 72.6775ZM10.1321 68.0747C10.1321 68.3386 10.0139 68.5731 9.8662 68.749C9.71851 68.8956 9.51173 69.0128 9.27541 69.0128H9.18679C8.98002 69.0128 8.71416 68.8076 8.47785 68.5438C8.38923 68.4558 8.33015 68.3679 8.27107 68.2506C8.24153 68.192 8.24153 68.104 8.21199 68.0454V68.0161C8.21199 67.9574 8.18245 67.8988 8.18245 67.8108C8.18245 67.6349 8.24153 67.459 8.30061 67.3125L8.41877 67.1659C8.56646 67.0193 8.77324 66.9313 8.98002 66.9313C9.15725 66.9313 9.33449 66.99 9.45265 67.1072C9.51173 67.1659 9.60035 67.2245 9.65943 67.2831L9.68897 67.3125C9.71851 67.3418 9.77759 67.3711 9.80713 67.4004C10.0434 67.5763 10.1321 67.8108 10.1321 68.0747ZM14.7698 58.7225C14.7402 58.6932 14.7107 58.6932 14.7107 58.6932C14.6811 58.6639 14.6516 58.6639 14.5925 58.6345H14.563C14.0017 58.3414 13.2337 58.1655 12.4066 58.1655C11.55 58.1655 10.7819 58.3414 10.2207 58.6345C10.1911 58.6345 10.1616 58.6639 10.1321 58.6639C10.1025 58.6932 10.073 58.6932 10.0434 58.7225C10.0139 58.7518 9.95482 58.7811 9.92528 58.8398C9.77758 58.9863 9.68897 59.2209 9.68897 59.4554C9.68897 59.69 9.77759 59.8952 9.89574 60.0418C10.073 60.247 10.3388 60.2763 10.5752 60.159C10.9296 59.9831 11.3432 59.8659 11.8158 59.8659C12.1998 59.8659 12.5838 59.9538 12.9088 60.1004C13.1156 60.1884 13.2337 60.4229 13.2337 60.6574V65.9639C13.2337 66.8434 13.0269 67.4297 12.5543 67.7522C12.5543 67.7522 12.5248 67.7522 12.5248 67.7815H11.7863C11.7272 67.7815 11.6386 67.7815 11.5795 67.8108C11.4909 67.8402 11.4023 67.8988 11.3432 67.9574C11.3136 67.9867 11.2841 68.0161 11.2841 68.0454C11.2546 68.0747 11.2546 68.104 11.225 68.1333C11.225 68.1627 11.1955 68.1627 11.1955 68.192C11.1364 68.3092 11.1069 68.4558 11.1069 68.6024C11.1069 68.9542 11.3136 69.2767 11.5795 69.4233C11.6977 69.4819 11.8158 69.5112 11.9635 69.5112H12.9088C12.9679 69.5112 13.0269 69.5112 13.086 69.4819H13.1156C13.1156 69.4819 13.2337 69.4526 13.2928 69.4233C13.6768 69.2767 14.0017 69.0422 14.2676 68.749C14.8288 68.104 15.1242 67.1366 15.1242 65.8466V59.3675C15.0947 59.1329 14.9765 58.8691 14.7698 58.7225ZM34 0C18.1842 0 5.31712 12.77 5.31712 28.4668C5.31712 44.1638 18.1839 56.9341 34 56.9341C49.8158 56.9341 62.6829 44.1638 62.6829 28.4668C62.6826 12.77 49.8158 0 34 0ZM34 55.6779C18.882 55.6779 6.58259 43.4714 6.58259 28.4668C6.58259 13.4628 18.882 1.25595 34 1.25595C49.118 1.25595 61.4174 13.4628 61.4174 28.4668C61.4171 43.4711 49.1177 55.6779 34 55.6779Z" fill="#0C0C0C"/>
<path d="M43.288 35.5838L43.2939 35.5779C43.3362 35.5601 43.366 35.536 43.4083 35.5302L43.4142 35.5243L43.4201 35.5184C44.5393 34.957 45.5023 34.6105 46.1283 34.3836C46.3959 34.2832 46.6669 34.1916 46.9406 34.1089C47.381 33.9738 47.8267 33.8562 48.2767 33.7565C48.6258 33.6729 48.9508 33.6011 49.3297 33.4697C50.1182 33.2009 50.8705 32.777 51.5807 32.2094C52.2367 32.4721 52.8925 32.6096 53.5306 32.6096C53.7713 32.6096 54.0059 32.5858 54.2407 32.5498C56.6659 32.1437 58.6037 29.7426 59.1454 26.5171C59.3403 26.4654 59.5125 26.3513 59.6354 26.1926C59.7584 26.0338 59.8252 25.8393 59.8254 25.6391C59.8253 25.5194 59.8014 25.4009 59.755 25.2904C59.7086 25.1799 59.6407 25.0796 59.5551 24.9953C59.4696 24.9109 59.3681 24.8441 59.2565 24.7988C59.1448 24.7535 59.0253 24.7305 58.9047 24.7311C58.3931 24.7311 57.9839 25.1313 57.9839 25.6391C57.9839 25.8901 58.0802 26.1108 58.2427 26.2723C58.3269 26.3621 58.4294 26.4336 58.5496 26.4755C58.0321 29.3782 56.2627 31.6002 54.1385 31.9584C53.4886 32.0719 52.8024 32.0062 52.0985 31.7614C54.4395 29.5755 56.299 25.6573 57.6351 20.0606C57.8629 20.0236 58.0685 19.9029 58.2109 19.7226C58.3534 19.5422 58.4224 19.3153 58.4042 19.0869C58.386 18.8584 58.282 18.6451 58.1128 18.4891C57.9436 18.3332 57.7215 18.2461 57.4906 18.245C57.3696 18.2445 57.2496 18.2678 57.1377 18.3135C57.0257 18.3593 56.924 18.4266 56.8384 18.5115C56.7528 18.5965 56.685 18.6974 56.6389 18.8085C56.5928 18.9196 56.5694 19.0387 56.5699 19.1588C56.5699 19.4098 56.6721 19.6305 56.8287 19.7921C56.8889 19.8577 56.9672 19.9114 57.0455 19.9533C55.6734 25.6813 53.7657 29.5875 51.3703 31.6122C51.3523 31.6301 51.3281 31.648 51.3101 31.6658C50.6239 32.2273 49.8957 32.6453 49.1315 32.908C48.7824 33.0273 48.4876 33.0933 48.1446 33.1707C48.1266 33.1766 48.1145 33.1766 48.0965 33.1827C48.8367 32.2569 49.5288 31.2833 50.1728 30.2917C51.3523 28.4761 52.4716 26.7619 53.1817 24.6235C53.9459 22.318 54.1326 19.8214 53.7415 17.1875C53.9015 17.1146 54.0371 16.9976 54.1321 16.8504C54.227 16.7032 54.2773 16.532 54.277 16.3572C54.277 15.8495 53.8679 15.4493 53.3563 15.4493C53.2358 15.4482 53.1164 15.471 53.0049 15.5163C52.8935 15.5615 52.7922 15.6283 52.707 15.7129C52.6219 15.7974 52.5545 15.8979 52.5089 16.0085C52.4633 16.1192 52.4404 16.2377 52.4414 16.3572C52.4414 16.6082 52.5377 16.829 52.6943 16.9902C52.8133 17.1141 52.9658 17.2013 53.1335 17.2412H53.1395C53.5247 19.7976 53.3501 22.2166 52.6098 24.4383C51.9236 26.499 50.8286 28.1832 49.6671 29.969C48.8904 31.1678 48.0465 32.3224 47.1394 33.4272H47.1335C47.0974 33.4331 47.0673 33.4451 47.0313 33.4571C46.8513 32.9265 46.7678 32.3683 46.7846 31.8086C46.8148 30.6679 47.2481 29.7541 47.6451 29.1507C47.6752 29.1566 47.6992 29.1627 47.7293 29.1627C47.7473 29.1686 47.7653 29.1686 47.7896 29.1686C47.9097 29.1686 48.0287 29.1452 48.1397 29.0996C48.2507 29.054 48.3516 28.9871 48.4365 28.9028C48.5215 28.8184 48.5889 28.7183 48.6348 28.6082C48.6808 28.498 48.7044 28.3799 48.7044 28.2606C48.7051 28.141 48.6819 28.0223 48.6362 27.9115C48.5905 27.8007 48.5233 27.7 48.4383 27.6151C48.3533 27.5302 48.2522 27.4628 48.1409 27.4167C48.0296 27.3707 47.9102 27.3469 47.7896 27.3468C47.6685 27.3463 47.5485 27.3696 47.4366 27.4154C47.3247 27.4611 47.223 27.5284 47.1374 27.6134C47.0518 27.6983 46.984 27.7992 46.9379 27.9103C46.8918 28.0214 46.8683 28.1405 46.8688 28.2606C46.8688 28.4996 46.9592 28.7145 47.1096 28.8757C46.6762 29.5506 46.2189 30.548 46.1826 31.7904C46.1634 32.4171 46.2571 33.0421 46.4594 33.636C46.291 33.6896 46.1164 33.7494 45.9238 33.8213C45.4364 34.0004 44.6841 34.2751 43.7813 34.6931C44.347 33.1461 44.63 31.6529 44.6359 30.1478C44.648 28.6427 44.3893 27.5855 44.1665 26.6538C44.1243 26.4746 44.0823 26.3014 44.046 26.1343C45.4497 25.7036 46.7417 24.9738 47.8315 23.9959C49.2819 22.6877 50.0762 21.2066 50.5036 20.0659C50.7418 20.059 50.968 19.9603 51.1342 19.7909C51.3004 19.6214 51.3937 19.3944 51.3943 19.1579C51.3943 18.9156 51.2973 18.6831 51.1246 18.5118C50.9519 18.3404 50.7177 18.2441 50.4735 18.2441C50.3525 18.2436 50.2325 18.2669 50.1206 18.3126C50.0086 18.3584 49.9069 18.4257 49.8213 18.5106C49.7357 18.5956 49.6679 18.6965 49.6218 18.8076C49.5757 18.9187 49.5523 19.0378 49.5528 19.1579C49.5528 19.4089 49.655 19.6296 49.8115 19.7912C49.8476 19.8269 49.8839 19.8568 49.9259 19.8926C49.4006 21.2939 48.5441 22.5496 47.4283 23.5541C46.4195 24.4621 45.2247 25.1427 43.9258 25.5491C43.7934 24.8085 43.7754 24.068 44.028 23.0944C44.2687 22.1747 44.9006 20.4543 46.4414 19.2359C46.9828 18.8178 47.3742 18.6566 47.7896 18.4833C47.7955 18.4833 47.8017 18.4775 47.8076 18.4775C48.1567 18.3341 48.5177 18.1907 48.9451 17.8861C50.3294 16.9125 51.202 15.1385 51.5269 12.624C51.7245 12.5734 51.8997 12.4592 52.0249 12.2992C52.1502 12.1393 52.2184 11.9426 52.219 11.7401C52.219 11.4977 52.122 11.2653 51.9493 11.0939C51.7767 10.9225 51.5425 10.8262 51.2983 10.8262C51.1772 10.8257 51.0572 10.849 50.9453 10.8948C50.8334 10.9405 50.7317 11.0078 50.6461 11.0928C50.5605 11.1777 50.4927 11.2787 50.4466 11.3898C50.4005 11.5009 50.377 11.6199 50.3775 11.7401C50.3775 11.9765 50.4703 12.2037 50.6363 12.3733C50.7146 12.4569 50.8168 12.5225 50.9252 12.5703C50.6183 14.9057 49.8358 16.5244 48.6022 17.3962C48.3659 17.5632 48.1116 17.7034 47.8439 17.8143C47.2772 16.2919 47.0453 14.6667 47.1639 13.0479C47.2639 11.7575 47.5898 10.4943 48.1269 9.31494C48.1508 9.32081 48.181 9.32696 48.2052 9.32696C48.2291 9.33283 48.2474 9.33283 48.2654 9.33283C48.5093 9.33183 48.7429 9.23523 48.9154 9.06407C49.0878 8.89291 49.1852 8.66106 49.1862 8.41901C49.1861 8.29931 49.1621 8.18082 49.1157 8.07033C49.0694 7.95984 49.0014 7.85953 48.9159 7.77517C48.8303 7.6908 48.7288 7.62404 48.6172 7.57871C48.5056 7.53339 48.386 7.5104 48.2654 7.51105C47.7538 7.51105 47.3447 7.91123 47.3447 8.41901C47.3447 8.66381 47.441 8.879 47.5975 9.04024C47.026 10.2886 46.6706 11.6445 46.5684 13.0001C46.4358 14.7111 46.6844 16.4301 47.2965 18.0351C46.9415 18.1905 46.5563 18.3875 46.0689 18.7698C45.2022 19.4567 44.6005 20.2808 44.1851 21.0633C43.6083 20.4388 43.1642 19.7055 42.8792 18.907C42.2113 16.9958 42.7167 15.3232 42.8851 14.7738C43.1259 13.9735 43.3967 13.5791 43.6794 13.1611C43.9202 12.8087 44.1668 12.4443 44.4017 11.8412C44.7747 10.8796 45.2743 9.02207 44.7869 6.80011C44.9211 6.71899 45.0321 6.60493 45.109 6.4689C45.1859 6.33288 45.2263 6.17948 45.2261 6.02349C45.2268 5.9038 45.2036 5.78515 45.1579 5.67437C45.1123 5.56359 45.045 5.46285 44.96 5.37794C44.875 5.29303 44.7739 5.22562 44.6626 5.17958C44.5513 5.13355 44.4319 5.10979 44.3113 5.10968C44.1901 5.10866 44.0699 5.1316 43.9577 5.17717C43.8455 5.22273 43.7436 5.29 43.6579 5.37506C43.5722 5.46012 43.5044 5.56126 43.4585 5.67259C43.4126 5.78392 43.3895 5.90321 43.3905 6.02349C43.3905 6.27445 43.4868 6.4955 43.6434 6.65675C43.7819 6.80011 43.9742 6.90155 44.197 6.92559C44.6542 8.99802 44.1911 10.7304 43.8419 11.6263C43.6915 12.0086 43.5409 12.2833 43.3784 12.5281C42.7705 12.0801 42.0122 11.3455 41.4947 10.2464C41.0011 9.18917 40.9411 7.77374 41.3322 6.01177C41.5518 5.9815 41.753 5.87363 41.8989 5.70798C42.0448 5.54232 42.1257 5.32999 42.1265 5.10997C42.1264 4.99027 42.1025 4.87178 42.0561 4.76129C42.0097 4.6508 41.9418 4.55049 41.8562 4.46613C41.7707 4.38176 41.6692 4.315 41.5576 4.26967C41.4459 4.22435 41.3264 4.20136 41.2058 4.20201C41.0853 4.20096 40.9659 4.22372 40.8544 4.26898C40.743 4.31423 40.6417 4.38107 40.5565 4.46559C40.4714 4.55012 40.404 4.65063 40.3584 4.76126C40.3128 4.8719 40.2899 4.99044 40.2909 5.10997C40.2909 5.36092 40.3872 5.58168 40.5438 5.74322C40.6041 5.80303 40.6702 5.85668 40.7423 5.89245C40.327 7.78576 40.3932 9.32667 40.947 10.4976C41.4231 11.5025 42.1452 12.3731 43.0473 13.03C42.7885 13.4123 42.5297 13.8483 42.307 14.6008C42.1265 15.198 41.5789 17.0078 42.3129 19.1043C42.6379 20.036 43.1855 20.9082 43.9078 21.6367C43.7202 22.0599 43.5673 22.4973 43.4505 22.9448C43.0293 24.5335 43.288 25.579 43.5769 26.7913C43.7997 27.6931 44.0463 28.7086 44.0342 30.1481C44.0283 31.7667 43.685 33.3853 42.9811 35.0816C42.5367 35.3102 42.1011 35.5553 41.6752 35.8163C41.2438 35.118 40.9535 34.343 40.8206 33.5345C40.8206 33.5108 40.8147 33.4867 40.8085 33.4568V33.451L40.8076 33.4492C40.5934 31.9954 40.9414 30.7679 41.2838 29.9927H41.3018C41.8072 29.9927 42.2225 29.5867 42.2225 29.0848C42.2225 28.8424 42.1255 28.61 41.9529 28.4386C41.7802 28.2672 41.546 28.1709 41.3018 28.1709C41.1807 28.1704 41.0608 28.1937 40.9488 28.2395C40.8369 28.2852 40.7352 28.3525 40.6496 28.4375C40.564 28.5224 40.4962 28.6234 40.4501 28.7345C40.404 28.8456 40.3805 28.9646 40.381 29.0848C40.381 29.3296 40.4832 29.5506 40.6398 29.718C40.6637 29.7418 40.688 29.7658 40.7181 29.7837C40.3419 30.6579 40.1475 31.5986 40.1465 32.5492C39.8338 32.2463 39.4452 32.0319 39.021 31.9279C38.8425 31.8802 38.6583 31.8561 38.4734 31.8561C38.4018 31.6988 38.2859 31.5654 38.1396 31.4721C37.9933 31.3788 37.8228 31.3296 37.6489 31.3305C37.5279 31.33 37.4079 31.3532 37.296 31.399C37.184 31.4447 37.0823 31.512 36.9967 31.597C36.9111 31.6819 36.8433 31.7829 36.7972 31.894C36.7511 32.0051 36.7277 32.1241 36.7282 32.2443C36.7282 32.4891 36.8245 32.7101 36.981 32.8772C37.1376 33.0326 37.3541 33.1341 37.589 33.1461C37.607 33.1581 37.625 33.1581 37.6492 33.1581C38.0826 33.1581 38.4435 32.8535 38.5398 32.4533C38.6542 32.4592 38.7626 32.4773 38.8707 32.507C39.7013 32.716 40.1164 33.4029 40.2369 33.6477C40.3782 34.5303 40.6932 35.3766 41.1638 36.1385C39.9362 36.9447 38.6545 37.996 37.5048 39.3578C37.0174 39.9371 36.548 40.4927 36.1327 41.1198C36.0786 40.1939 35.922 39.0532 35.5729 38.2229C35.3141 37.5959 35.0554 37.2373 34.8267 36.921C34.6997 36.7421 34.5818 36.5774 34.4755 36.3824C34.5809 36.1669 34.6754 35.9464 34.7588 35.7216L34.8037 35.5876V35.5727C34.8187 35.558 34.8338 35.5281 34.8187 35.5132C35.1367 34.6631 35.3577 33.7805 35.4778 32.8816C35.5377 32.5547 35.5676 32.2276 35.5676 31.9004C35.5977 31.7221 35.6125 31.5585 35.5977 31.38C35.6053 31.0709 35.6003 30.7617 35.5826 30.453C36.1971 29.309 36.7356 28.6963 37.2581 28.1044C37.4718 27.8696 37.6785 27.6286 37.8779 27.3817C38.0873 27.4298 38.3496 27.4711 38.6483 27.4711C39.0154 27.4711 39.4426 27.4113 39.888 27.2263C40.8357 26.8478 41.3514 26.1302 41.6125 25.6291C41.6223 25.63 41.6314 25.6329 41.6412 25.6335C41.661 25.64 41.6805 25.64 41.7003 25.64C41.9439 25.6394 42.1773 25.543 42.3496 25.3721C42.5219 25.2011 42.6189 24.9694 42.6195 24.7276C42.6197 24.6078 42.5961 24.489 42.55 24.3783C42.5038 24.2675 42.4361 24.1668 42.3507 24.0821C42.2653 23.9973 42.1639 23.9301 42.0523 23.8843C41.9407 23.8385 41.8211 23.8151 41.7003 23.8153C41.5793 23.8145 41.4595 23.8376 41.3476 23.8832C41.2357 23.9288 41.1341 23.996 41.0486 24.0808C40.9631 24.1657 40.8954 24.2666 40.8495 24.3776C40.8035 24.4886 40.7803 24.6076 40.781 24.7276C40.781 24.9754 40.8794 25.1967 41.0371 25.3597C41.0436 25.3664 41.0516 25.3714 41.0584 25.3779C40.8395 25.7892 40.415 26.3697 39.6594 26.6766C39.1377 26.8886 38.6474 26.8933 38.2755 26.8434C38.5139 26.4936 38.7289 26.1286 38.9191 25.7508C39.2018 25.2131 41.6152 20.3453 39.852 15.7164C39.4969 14.7905 39.2201 14.2232 38.9794 13.7155C38.6725 13.0764 38.4078 12.5269 38.0406 11.4158C37.3364 9.27742 37.7819 7.28267 38.3836 5.53272C38.6259 5.53025 38.8574 5.4328 39.0276 5.26161C39.1978 5.09043 39.2929 4.8594 39.2922 4.6189C39.2928 4.49951 39.2695 4.38118 39.2238 4.27076C39.178 4.16033 39.1106 4.06001 39.0256 3.97558C38.9405 3.89116 38.8394 3.8243 38.7282 3.77888C38.6169 3.73345 38.4977 3.71037 38.3774 3.71095C37.8598 3.71095 37.4566 4.11113 37.4566 4.6189C37.4566 4.86986 37.5529 5.09062 37.7095 5.25216C37.7396 5.28206 37.7697 5.31196 37.8058 5.33571C37.2761 6.87663 36.6803 9.18829 37.4687 11.6011C37.848 12.748 38.1307 13.3452 38.4376 13.9723C38.6843 14.4921 38.9431 15.0236 39.2863 15.9254C40.9893 20.3872 38.492 25.2729 38.3836 25.4758C38.0826 26.0613 37.7937 26.4972 37.511 26.8675C37.2761 27.178 37.0416 27.4409 36.8008 27.7098C36.3817 28.19 35.9504 28.6808 35.4798 29.4301C35.4501 29.2266 35.4145 29.0239 35.3732 28.8224C35.2084 28.0047 34.9688 27.2762 34.7289 26.6667L34.7275 26.6629C35.3073 26.1169 35.8008 25.4872 36.1912 24.7951C38.245 21.1248 36.5831 16.9333 36.0257 15.7354C35.9421 15.5566 35.7905 15.4179 35.604 15.3499C35.4176 15.2819 35.2116 15.29 35.0311 15.3725C34.8509 15.4555 34.7112 15.606 34.6427 15.791C34.5741 15.9761 34.5823 16.1805 34.6654 16.3596C35.1496 17.3963 36.5935 21.0158 34.8805 24.0718C34.6606 24.4627 34.3987 24.8288 34.0995 25.1639C33.7252 24.3172 33.4106 23.7821 33.1261 23.3362C32.8866 22.9349 32.6919 22.6226 32.5271 22.1914C31.733 20.1547 32.4671 18.0732 32.9914 16.5419L33.1111 16.1852C33.4706 15.1294 33.7701 14.6094 34.0699 14.1039C34.3245 13.7026 34.5644 13.2713 34.819 12.6319C35.5682 10.6248 36.1073 8.46914 34.3396 4.26182C34.1748 3.87542 33.7406 3.69688 33.366 3.86047C32.9767 4.02406 32.7968 4.45502 32.9616 4.82676C34.6542 8.84088 33.9653 10.6547 33.4109 12.1115C33.2162 12.6319 33.0065 12.9737 32.7817 13.3604C32.4671 13.8958 32.0925 14.5199 31.6881 15.7243L31.5682 16.0661C30.999 17.7014 30.145 20.1843 31.1337 22.7264C31.3434 23.2764 31.5833 23.6778 31.8527 24.109C32.1522 24.6145 32.5117 25.1794 32.9462 26.2202C33.3208 27.1269 33.8301 28.3609 34.0247 29.9071C34.0696 30.2639 34.0998 30.6207 34.1145 30.9924V31.022C34.1145 31.1557 34.1145 31.2897 34.0995 31.4234L33.9946 31.2152C33.68 30.5612 33.2455 29.7731 32.6615 28.8514C32.2272 28.1824 31.8976 27.6769 31.6128 27.2902L31.6013 27.2788C31.5936 27.2659 31.5868 27.253 31.5786 27.2407C31.564 27.2172 31.5467 27.1955 31.5272 27.1759L31.5198 27.1665C31.5091 27.1533 31.5065 27.1401 31.4932 27.1267C31.2235 26.7549 30.9987 26.5022 30.8191 26.2791C30.5196 25.9223 30.3246 25.7141 30.0251 25.1345C28.6019 22.3693 28.4373 18.6079 29.5908 15.5604C29.8904 14.7724 30.1302 14.4006 30.3846 13.9846C30.6992 13.5237 31.0138 13.033 31.3133 12.0221C32.0021 9.77728 31.9274 7.30935 31.1186 4.70774C30.9987 4.32133 30.5792 4.09823 30.1899 4.21696C29.7855 4.33599 29.5758 4.7523 29.6954 5.15365C30.4144 7.47294 30.4744 9.62864 29.8753 11.5911C29.6354 12.3938 29.4109 12.7506 29.1262 13.1968C28.8565 13.6281 28.5419 14.1039 28.1824 15.0257C26.864 18.5194 27.059 22.6523 28.6917 25.8042C28.8414 26.0718 28.9613 26.2946 29.081 26.4732C29.081 26.4732 29.0928 26.4743 29.0949 26.4861C28.9869 26.4371 28.8808 26.3839 28.777 26.3266C27.4853 25.6165 26.8856 24.4872 26.6428 23.8774C26.4921 23.4957 26.0561 23.304 25.6715 23.4594C25.58 23.4951 25.4966 23.5485 25.4259 23.6163C25.3552 23.6841 25.2986 23.7651 25.2595 23.8546C25.2204 23.9442 25.1994 24.0405 25.1979 24.1381C25.1963 24.2356 25.2141 24.3326 25.2503 24.4233C25.5664 25.219 26.3504 26.6925 28.0501 27.6274C28.824 28.0504 29.6794 28.306 30.56 28.3773C30.8423 28.7891 31.1183 29.2051 31.388 29.6251C32.4216 31.2903 32.961 32.4052 33.2156 33.1487C33.5004 33.9664 33.4703 34.3531 33.4555 34.5609C33.4404 34.8136 33.3955 35.0071 33.3506 35.1854C33.3057 35.3191 33.2608 35.4381 33.2009 35.5718C33.156 35.6908 33.0812 35.8245 33.0062 35.9731C32.7965 36.4044 32.5271 36.9394 32.2571 37.772C32.0042 38.5393 31.824 39.3284 31.7189 40.1289L31.7171 40.1262C30.9541 38.8811 29.9503 37.529 28.7519 36.3774C28.8766 35.9825 28.9696 35.5777 29.0325 35.169C29.4269 34.75 29.8493 34.358 30.2968 33.9954C30.6973 33.6739 31.1169 33.3767 31.5534 33.1053C31.6368 33.0535 31.7091 32.9859 31.7662 32.9063C31.8232 32.8267 31.8639 32.7368 31.8859 32.6416C31.9079 32.5464 31.9108 32.4478 31.8944 32.3516C31.878 32.2553 31.8427 32.1631 31.7904 32.0804C31.6845 31.9137 31.5164 31.7954 31.3229 31.7514C31.1294 31.7073 30.9262 31.7411 30.7577 31.8453C30.2702 32.1483 29.8017 32.4804 29.3548 32.8397C29.2771 32.9022 29.2015 32.9672 29.125 33.0314V33.0297C29.0284 31.7985 28.6874 30.5985 28.1215 29.4987C27.9298 29.1322 27.4802 28.9939 27.111 29.1736C26.9347 29.2647 26.8018 29.4211 26.7411 29.6089C26.6805 29.7967 26.6969 30.0007 26.7869 30.1765C27.3376 31.2425 27.6344 32.4197 27.6545 33.6175C27.6616 34.1833 27.6056 34.7482 27.4873 35.3018C27.1764 35.0685 26.8517 34.8537 26.5152 34.6586C26.182 34.4625 25.8374 34.2863 25.4831 34.1308C25.2213 31.4225 25.0527 28.7564 24.9874 26.2046L24.9711 25.55C24.9413 24.2668 24.9153 23.1612 24.7221 22.1864C25.4925 21.2356 26.0656 20.1354 26.3843 18.9776C26.6242 18.1095 26.9432 16.3526 26.3843 14.3434C26.2094 13.7155 26.0104 13.2839 25.8059 12.9216C26.4351 12.4155 26.958 11.821 27.3544 11.1435C28.772 8.71892 28.1354 6.1519 27.7963 5.16039C27.7314 4.97428 27.5951 4.8211 27.4171 4.7341C27.2391 4.6471 27.0336 4.63331 26.8454 4.69572C26.6573 4.7593 26.5023 4.89442 26.4145 5.07138C26.3267 5.24835 26.3133 5.45267 26.3772 5.63944C26.6508 6.43804 27.1686 8.5011 26.0582 10.397C25.7923 10.8535 25.4485 11.2613 25.0409 11.6207C24.9687 11.4723 24.903 11.3208 24.8441 11.1666C24.3467 9.86875 24.2619 8.35744 24.5939 6.67317C24.6317 6.47951 24.5905 6.2789 24.4794 6.11534C24.3683 5.95178 24.1964 5.83863 24.0014 5.80068C23.599 5.72798 23.2026 5.98362 23.1223 6.38879C22.7377 8.34865 22.8458 10.1332 23.444 11.6952C23.7057 12.3792 23.9807 12.8116 24.2223 13.1936C24.4973 13.6263 24.7342 13.9993 24.9407 14.7383C25.4045 16.405 25.1395 17.8627 24.9392 18.5842C24.7542 19.2512 24.4748 19.8888 24.1092 20.4778C23.9276 20.1611 23.7105 19.8659 23.462 19.5977C22.795 18.8747 22.1761 18.6191 21.5779 18.3708C21.4495 18.3176 21.3218 18.2627 21.1948 18.206C21.7251 16.4486 21.9157 14.6074 21.7564 12.7797C21.6104 11.0958 21.1704 9.45005 20.456 7.91592C20.373 7.73686 20.2217 7.59785 20.0355 7.52948C19.8492 7.46111 19.6432 7.46898 19.4628 7.55136C19.2823 7.63374 19.1423 7.78389 19.0734 7.96876C19.0045 8.15363 19.0124 8.35809 19.0954 8.53716C19.737 9.91569 20.1325 11.3943 20.2643 12.9072C20.3949 14.4029 20.2647 15.9098 19.8794 17.3617C18.5971 16.2244 17.7579 14.3566 17.3854 11.7952C17.3254 11.3871 16.9349 11.1141 16.537 11.1652C16.3405 11.1935 16.1633 11.2981 16.0443 11.4559C15.9253 11.6138 15.8742 11.812 15.9022 12.0071C16.376 15.2608 17.5656 17.5851 19.4351 18.9134C20.0422 19.3447 20.5514 19.5552 21.0004 19.7425C21.5301 19.9618 21.9132 20.1201 22.3581 20.6021C22.7746 21.053 23.026 21.5625 23.1834 22.1673C23.1858 22.1773 23.1881 22.187 23.1911 22.1967C23.3884 22.9742 23.4327 23.9114 23.4626 25.095C22.6861 24.7225 21.9633 24.2485 21.3136 23.6857C19.6006 22.1975 18.7859 20.435 18.4039 19.2183C18.3428 19.0327 18.2105 18.8784 18.0357 18.7888C17.8608 18.6991 17.6575 18.6814 17.4696 18.7393C17.2816 18.7973 17.1243 18.9263 17.0314 19.0985C16.9385 19.2707 16.9177 19.4722 16.9733 19.6595C17.4138 21.0592 18.3513 23.0888 20.3275 24.8036C21.2703 25.6229 22.3455 26.2786 23.5081 26.7429C23.5757 28.9537 23.7178 31.2413 23.9293 33.5674L23.9234 33.5656C23.4574 33.4406 22.9858 33.3368 22.5102 33.2546C22.4205 32.0162 22.1514 30.7972 21.7112 29.635C21.1368 28.125 20.2829 26.7349 19.1935 25.5365C19.1276 25.4639 19.048 25.4048 18.9591 25.3627C18.8702 25.3207 18.7739 25.2964 18.6755 25.2913C18.5772 25.2861 18.4788 25.3003 18.386 25.3329C18.2931 25.3655 18.2077 25.416 18.1345 25.4814C18.0613 25.5468 18.0019 25.6258 17.9595 25.714C17.9171 25.8022 17.8926 25.8979 17.8874 25.9955C17.8823 26.0931 17.8965 26.1907 17.9294 26.2828C17.9623 26.375 18.0131 26.4598 18.079 26.5324C19.0444 27.5924 19.8011 28.8226 20.3098 30.1592C20.5886 30.8992 20.7893 31.6658 20.9086 32.4469C20.0797 31.6527 19.0948 30.472 18.1257 29.0965C15.7442 25.718 14.7449 21.4177 15.2349 16.6572C15.2451 16.5601 15.2358 16.462 15.2077 16.3685C15.1795 16.275 15.1331 16.1879 15.071 16.1123C15.0089 16.0366 14.9323 15.9739 14.8458 15.9276C14.7592 15.8813 14.6643 15.8525 14.5664 15.8427C14.1552 15.792 13.7881 16.0969 13.7458 16.5062C13.2177 21.6267 14.3091 26.2741 16.8968 29.9473C17.2714 30.4791 17.9715 31.4351 18.7832 32.3689C16.0375 31.027 12.0027 26.5866 11.4417 19.1653C11.4246 18.969 11.3307 18.7872 11.1804 18.6586C11.03 18.5301 10.8349 18.465 10.6368 18.4772C10.4385 18.4923 10.2545 18.585 10.1251 18.7348C9.99566 18.8846 9.93152 19.0793 9.94675 19.2761C10.3857 25.0753 12.769 29.18 15.2532 31.6113C14.8083 31.62 14.3645 31.5642 13.9358 31.4457C11.8804 30.8649 10.3021 28.786 9.91574 26.148C9.85577 25.7399 9.46821 25.4714 9.06588 25.5195C8.8693 25.5482 8.69222 25.6531 8.57349 25.8112C8.45476 25.9694 8.40408 26.1678 8.43255 26.3629C8.90371 29.5788 10.9032 32.1355 13.5264 32.8746C14.0545 33.0241 14.6075 33.0983 15.172 33.0983C15.704 33.0983 16.2472 33.0285 16.7881 32.8972L16.7905 32.8989C17.4944 33.4003 18.1774 33.7635 18.7906 33.9884C19.7175 34.3273 20.62 34.4692 21.4876 34.6005C22.4396 34.7483 23.4162 34.9001 24.4849 35.3226C24.4982 35.3282 24.5112 35.3337 24.5251 35.3384C24.9506 35.5102 25.3633 35.712 25.7599 35.9421C25.927 36.0388 26.091 36.1426 26.2546 36.2534C25.7802 36.4129 25.2894 36.5195 24.7913 36.5715C23.1116 36.7512 21.7493 36.2983 20.892 35.8902C20.5228 35.7105 20.0732 35.8658 19.8921 36.2361C19.8068 36.4141 19.7959 36.6184 19.8618 36.8043C19.9277 36.9903 20.0651 37.1428 20.2439 37.2285C21.1151 37.6469 22.4358 38.1001 24.0386 38.1001C24.3436 38.0989 24.6483 38.0828 24.9517 38.0517C25.6695 37.9755 26.3663 37.8061 27.0389 37.5536C27.2231 37.4861 27.4044 37.4111 27.5824 37.3288C27.7447 37.48 27.9027 37.6356 28.0563 37.7955C28.8922 38.6595 29.6549 39.6551 30.2889 40.6504C29.5474 40.5346 28.6598 40.544 27.5248 40.5548C26.7988 40.5654 25.9489 40.5751 24.9422 40.5581C23.3663 40.4229 21.3969 39.9594 19.4603 38.7008C17.3068 37.3012 16.0709 35.485 15.4125 34.2088C15.3215 34.0338 15.1645 33.9015 14.9757 33.8409C14.7869 33.7803 14.5816 33.7962 14.4046 33.8852C14.3169 33.9295 14.239 33.9906 14.1751 34.0649C14.1113 34.1392 14.0628 34.2253 14.0326 34.3182C14.0023 34.4111 13.9907 34.509 13.9986 34.6064C14.0065 34.7037 14.0336 34.7985 14.0784 34.8855C14.8187 36.3229 16.2112 38.3654 18.6396 39.9436C18.7711 40.0292 18.9028 40.1086 19.0346 40.1878C15.1159 39.7562 14.0143 39.1368 13.1831 38.4874C11.707 37.3317 10.6891 35.6114 10.1565 33.3724C10.0628 32.9746 9.6679 32.7148 9.25671 32.8192C9.16096 32.8414 9.07056 32.8821 8.99069 32.939C8.91082 32.9959 8.84305 33.0679 8.79127 33.1509C8.73949 33.2338 8.70471 33.3261 8.68893 33.4224C8.67315 33.5188 8.67667 33.6172 8.6993 33.7122C9.31077 36.2877 10.5074 38.2869 12.2556 39.6545C13.6365 40.7331 15.3599 41.3983 20.506 41.8208C22.2006 41.9603 23.6153 42.0198 24.8125 42.0418C25.2479 42.0793 25.6571 42.0952 26.031 42.0952C26.465 42.0952 26.8525 42.0746 27.1828 42.0459L27.5408 42.0412C29.8142 42.0195 30.56 42.0368 31.1951 42.6279C32.5994 43.9345 32.4444 47.226 30.7461 52.146C30.7073 52.2579 30.696 52.3774 30.7131 52.4945C30.7302 52.6116 30.7753 52.723 30.8446 52.8193C30.9138 52.9157 31.0053 52.9941 31.1114 53.0483C31.2174 53.1024 31.3349 53.1306 31.4542 53.1305C31.7658 53.1305 32.0568 52.9358 32.1623 52.628C33.7447 48.0486 34.0596 44.8041 33.112 42.7827C33.0239 41.1969 33.2186 39.6703 33.6818 38.2326C33.7695 37.9441 33.8745 37.6611 33.9964 37.3851C34.0513 37.249 34.106 37.1265 34.1609 37.011C34.2197 37.0972 34.2796 37.1813 34.3408 37.2654C34.5576 37.5701 34.7863 37.8867 35.0208 38.4481C35.46 39.5112 35.5806 41.2552 35.5504 42.1691C35.4267 42.427 35.3214 42.6933 35.2353 42.9659C35.2261 42.9873 35.2152 43.0084 35.2113 43.0307C35.1522 43.2019 35.0985 43.3843 35.0509 43.5725C34.5514 45.5913 34.9307 47.4429 35.2075 48.7927C35.3948 49.7028 35.6582 50.5959 35.995 51.4626C36.0541 51.6294 36.1226 51.8004 36.2036 51.9804C36.2171 52.0126 36.2287 52.0455 36.2426 52.0777C36.2455 52.0844 36.2526 52.0874 36.2558 52.0935C36.3004 52.1891 36.3386 52.2818 36.3882 52.3788C36.4987 52.5952 36.6177 52.8232 36.7545 53.0302C36.7761 53.0631 36.804 53.0914 36.8367 53.1135C36.8693 53.1356 36.906 53.1511 36.9447 53.1591C36.9834 53.167 37.0233 53.1674 37.0622 53.16C37.101 53.1526 37.138 53.1377 37.171 53.1161C37.3101 53.0258 37.3488 52.8408 37.2575 52.7025C37.1408 52.5257 37.0389 52.3316 36.9252 52.1088C36.862 51.9854 36.8112 51.8675 36.7574 51.7482C36.6838 51.5734 36.6133 51.3974 36.5459 51.2202C36.5255 51.1612 36.4975 51.0962 36.4806 51.0402C36.4777 51.0299 36.4703 51.0229 36.4662 51.0132C36.1847 50.2508 35.9611 49.4686 35.7971 48.6731C35.5141 47.3051 35.1712 45.6091 35.6346 43.7155C35.6769 43.5423 35.7247 43.3752 35.785 43.2139C35.785 43.2089 35.7865 43.2051 35.79 43.2037C36.2349 42.5698 36.7692 42.0703 37.3795 41.7267C38.9682 40.8307 40.6894 41.1594 41.9534 41.3983L42.2603 41.452C46.5451 42.2283 50.8962 41.5176 53.117 40.5261C55.404 39.5047 57.2576 37.456 58.6415 34.422C59.123 34.3979 59.502 33.9977 59.502 33.514C59.5026 33.3946 59.4793 33.2763 59.4335 33.1659C59.3878 33.0554 59.3204 32.9551 59.2353 32.8707C59.1503 32.7863 59.0492 32.7194 58.9379 32.674C58.8267 32.6286 58.7074 32.6055 58.5871 32.6061C58.0696 32.6061 57.6664 33.0062 57.6664 33.514C57.6664 33.765 57.7627 33.9857 57.9193 34.1473C57.9615 34.1892 58.0034 34.225 58.0516 34.2549C56.7397 37.1098 54.9942 39.033 52.8701 39.9767C51.2652 40.6926 48.505 41.2576 45.4731 41.1796L45.4799 41.1772C46.8406 40.6868 48.1281 40.0156 49.3073 39.1822C50.6628 38.2298 51.8659 37.0801 52.876 35.7717C52.9061 35.7776 52.9421 35.7838 52.9723 35.7838C52.9909 35.7929 53.0117 35.7971 53.0325 35.7958C53.2764 35.7948 53.51 35.6982 53.6825 35.527C53.8549 35.3559 53.9523 35.124 53.9533 34.882C53.9533 34.7619 53.9295 34.6431 53.8832 34.5322C53.8369 34.4214 53.7691 34.3206 53.6836 34.2358C53.5981 34.1509 53.4966 34.0836 53.3849 34.0377C53.2732 33.9918 53.1534 33.9681 53.0325 33.9681C52.9115 33.9676 52.7915 33.9909 52.6796 34.0367C52.5676 34.0824 52.4659 34.1497 52.3803 34.2347C52.2947 34.3196 52.2269 34.4206 52.1808 34.5317C52.1347 34.6427 52.1113 34.7618 52.1118 34.882C52.1118 35.1089 52.2022 35.312 52.3404 35.4733C51.3815 36.7099 50.2414 37.797 48.9581 38.6985C47.4069 39.7852 45.6726 40.5882 43.8369 41.0697L43.8289 41.072C43.3396 41.0219 42.8525 40.9533 42.3685 40.8665L42.0615 40.8067C40.7916 40.5677 38.86 40.2033 37.0844 41.201C36.9155 41.2963 36.7527 41.4033 36.5947 41.5185C36.9973 40.8817 37.477 40.3215 37.9691 39.7378C38.8771 38.6631 39.9231 37.7112 41.0805 36.9066C41.0926 36.9125 41.0986 36.9125 41.1107 36.9186C41.8178 37.1798 42.5562 37.3484 43.3072 37.4202C44.5055 37.5279 45.7133 37.3938 46.8579 37.0259L46.8759 37.0438C47.0346 37.2072 47.2494 37.3052 47.4776 37.3185C47.4956 37.3244 47.5199 37.3244 47.5379 37.3244C47.7818 37.3234 48.0154 37.2268 48.1878 37.0556C48.3603 36.8845 48.4576 36.6526 48.4586 36.4106C48.4586 36.1682 48.3616 35.9358 48.1889 35.7644C48.0163 35.593 47.7821 35.4967 47.5379 35.4967C47.4168 35.4962 47.2969 35.5195 47.1849 35.5653C47.073 35.611 46.9713 35.6783 46.8857 35.7633C46.8001 35.8482 46.7323 35.9492 46.6862 36.0603C46.6401 36.1714 46.6166 36.2904 46.6171 36.4106C46.6171 36.4284 46.6171 36.4525 46.623 36.4704C45.5578 36.8049 44.4445 36.9242 43.3613 36.8228C42.9544 36.7864 42.5516 36.7145 42.1575 36.6079L41.7003 36.4885C41.8025 36.4229 41.8988 36.3631 42.0013 36.2974C42.4214 36.0442 42.8506 35.8061 43.288 35.5838ZM58.4474 25.8124C58.4234 25.7577 58.4112 25.6987 58.4114 25.6391C58.4114 25.3703 58.6341 25.1554 58.905 25.1554C59.1759 25.1554 59.3986 25.3703 59.3986 25.6391C59.3986 25.7883 59.3324 25.9258 59.2181 26.0094C59.1672 26.0561 59.105 26.089 59.0376 26.1049C58.9946 26.1172 58.95 26.1232 58.9053 26.1228C58.7969 26.1228 58.7006 26.0871 58.6164 26.0331C58.542 25.975 58.4839 25.899 58.4474 25.8124ZM57.0334 19.3318C57.0153 19.2781 56.9973 19.2183 56.9973 19.1585C56.9973 18.8838 57.226 18.6686 57.4909 18.6686C57.7618 18.6686 57.9845 18.8835 57.9845 19.1585C57.9845 19.3318 57.8941 19.4869 57.7497 19.5707C57.711 19.5957 57.6682 19.6139 57.6233 19.6244C57.5803 19.637 57.5357 19.643 57.4909 19.6422C57.3631 19.6414 57.2405 19.5922 57.148 19.5047C57.0974 19.4562 57.0583 19.3971 57.0334 19.3318ZM53.0612 16.7398C52.9893 16.6857 52.9332 16.6136 52.8987 16.5308C52.8795 16.475 52.8693 16.4165 52.8686 16.3575C52.8686 16.2284 52.9203 16.1046 53.0122 16.0133C53.1042 15.922 53.229 15.8707 53.3591 15.8707C53.4892 15.8707 53.6139 15.922 53.7059 16.0133C53.7979 16.1046 53.8496 16.2284 53.8496 16.3575C53.8496 16.5068 53.7772 16.6501 53.6629 16.734C53.6122 16.7764 53.5525 16.807 53.4883 16.8234C53.4454 16.836 53.4008 16.8421 53.356 16.8413C53.2479 16.8413 53.1457 16.8055 53.0612 16.7398ZM47.7896 27.7713C48.0542 27.7713 48.2832 27.9862 48.2832 28.2612C48.2832 28.4582 48.1567 28.6256 47.9822 28.7033C47.9579 28.7092 47.9399 28.7154 47.916 28.7212C47.875 28.7335 47.8324 28.7395 47.7896 28.7391C47.6091 28.7391 47.4525 28.6494 47.3742 28.506C47.3526 28.484 47.3362 28.4574 47.3261 28.4283C47.3074 28.3745 47.2972 28.3181 47.2959 28.2612C47.2959 27.9865 47.5187 27.7713 47.7896 27.7713ZM50.4735 18.6689C50.7444 18.6689 50.9671 18.8838 50.9671 19.1588C50.9671 19.3558 50.8469 19.5349 50.6661 19.6068C50.6481 19.6126 50.6239 19.6188 50.6059 19.6247C50.5628 19.6369 50.5183 19.6429 50.4735 19.6425C50.3987 19.643 50.3248 19.6259 50.2579 19.5927C50.1909 19.5595 50.1328 19.5111 50.0883 19.4514C50.0587 19.4152 50.0343 19.375 50.0159 19.3321C49.9979 19.2784 49.9799 19.2186 49.9799 19.1588C49.9799 18.8838 50.2026 18.6689 50.4735 18.6689ZM50.8407 11.9078C50.8189 11.8546 50.8067 11.798 50.8047 11.7407C50.8047 11.466 51.0274 11.2508 51.298 11.2508C51.402 11.2507 51.5035 11.2833 51.5877 11.344C51.6719 11.4047 51.7345 11.4903 51.7666 11.5885C51.7987 11.6868 51.7986 11.7926 51.7663 11.8908C51.734 11.989 51.6712 12.0745 51.5869 12.135C51.5387 12.1649 51.4906 12.1948 51.4303 12.2068C51.3873 12.219 51.3427 12.225 51.298 12.2247C51.1777 12.2247 51.0634 12.1828 50.9789 12.1054C50.9179 12.0512 50.8705 11.9835 50.8407 11.9078ZM48.2648 7.93586C48.3293 7.93544 48.3931 7.94761 48.4528 7.9717C48.5125 7.99578 48.5668 8.0313 48.6126 8.07622C48.6585 8.12114 48.695 8.17459 48.72 8.23351C48.745 8.29243 48.7581 8.35566 48.7585 8.41959C48.7597 8.52618 48.7248 8.63009 48.6593 8.71459C48.5938 8.79908 48.5016 8.85926 48.3975 8.88545C48.3733 8.89131 48.3493 8.89747 48.3251 8.89747C48.3071 8.90333 48.2891 8.90333 48.2648 8.90333C48.166 8.90305 48.0696 8.87329 47.9881 8.81792C47.9065 8.76256 47.8436 8.68415 47.8076 8.59286C47.7836 8.53821 47.7713 8.4792 47.7715 8.41959C47.7715 8.15076 47.994 7.93586 48.2648 7.93586ZM44.311 6.5084C44.2268 6.5084 44.1485 6.48465 44.0761 6.44859C43.9982 6.40802 43.9329 6.34709 43.8873 6.27238C43.8417 6.19767 43.8175 6.11202 43.8174 6.02467C43.8174 5.89556 43.869 5.77173 43.961 5.68044C44.053 5.58914 44.1778 5.53785 44.3079 5.53785C44.438 5.53785 44.5627 5.58914 44.6547 5.68044C44.7467 5.77173 44.7984 5.89556 44.7984 6.02467C44.7984 6.14428 44.7561 6.25774 44.6782 6.34129C44.6158 6.41501 44.5315 6.46725 44.4374 6.49052C44.3964 6.50263 44.3538 6.50866 44.311 6.5084ZM40.8445 5.4392C40.8033 5.39353 40.7707 5.3409 40.7482 5.28382C40.7302 5.23017 40.7122 5.17036 40.7122 5.11055C40.7122 4.83585 40.9408 4.62066 41.2058 4.62066C41.4767 4.62066 41.6994 4.83556 41.6994 5.11055C41.6994 5.28968 41.5972 5.45093 41.4465 5.53478C41.4105 5.55266 41.3742 5.56468 41.3381 5.5767C41.2952 5.58935 41.2506 5.59538 41.2058 5.59458C41.0613 5.59458 40.9349 5.53478 40.8445 5.4392ZM41.3021 28.5957C41.573 28.5957 41.7957 28.8106 41.7957 29.0856C41.7957 29.2826 41.6755 29.45 41.5009 29.5277C41.477 29.5336 41.4586 29.5398 41.4347 29.5456C41.3917 29.5578 41.3471 29.5639 41.3024 29.5635C41.1399 29.5635 40.9955 29.4858 40.9113 29.3665C40.8811 29.3366 40.8631 29.295 40.8451 29.253C40.8212 29.2005 40.8089 29.1435 40.8091 29.0859C40.8087 29.0215 40.8212 28.9577 40.8458 28.8981C40.8704 28.8385 40.9067 28.7843 40.9525 28.7388C40.9984 28.6932 41.0529 28.6571 41.1129 28.6325C41.1729 28.608 41.2372 28.5955 41.3021 28.5957ZM38.0823 32.4721V32.4779C38.0497 32.5348 38.0056 32.5843 37.9528 32.6233C37.9 32.6624 37.8395 32.6902 37.7754 32.7049C37.7347 32.7191 37.692 32.7271 37.6489 32.7286C37.5485 32.7283 37.4505 32.698 37.3678 32.6415C37.2851 32.585 37.2215 32.505 37.1855 32.412C37.1581 32.338 37.1491 32.2586 37.1593 32.1805C37.1695 32.1023 37.1987 32.0278 37.2442 31.9633C37.2897 31.8987 37.3503 31.8461 37.4208 31.8098C37.4913 31.7735 37.5695 31.7547 37.6489 31.755C37.7692 31.755 37.8838 31.8028 37.9739 31.8863C38.0761 31.964 38.1422 32.0953 38.1422 32.2446C38.1425 32.3228 38.1245 32.4002 38.0823 32.4721ZM41.7 24.2404C41.9691 24.2404 42.1924 24.4556 42.1924 24.7291C42.1929 24.8352 42.1576 24.9384 42.0921 25.0222C42.0266 25.106 41.9348 25.1657 41.8311 25.1917C41.7886 25.205 41.7443 25.2117 41.6997 25.2114C41.5703 25.2109 41.4463 25.1602 41.3543 25.07C41.2622 24.9798 41.2094 24.8574 41.2073 24.7291C41.2073 24.6649 41.22 24.6013 41.2448 24.542C41.2695 24.4827 41.3058 24.4288 41.3516 24.3834C41.3973 24.338 41.4517 24.302 41.5114 24.2775C41.5712 24.2529 41.6353 24.2403 41.7 24.2404ZM38.3771 4.13722C38.6418 4.13722 38.8645 4.35212 38.8645 4.62096C38.8658 4.72102 38.835 4.81891 38.7766 4.90048C38.7182 4.98206 38.6352 5.0431 38.5395 5.07479C38.5274 5.08065 38.5153 5.08065 38.5035 5.08681C38.4625 5.09906 38.4199 5.10509 38.3771 5.10469C38.2087 5.10469 38.0521 5.01498 37.9618 4.8898C37.9437 4.85989 37.9257 4.82999 37.9136 4.79422C37.8859 4.72028 37.8767 4.64076 37.8868 4.56252C37.8969 4.48427 37.926 4.40963 37.9716 4.34501C38.0172 4.28038 38.0779 4.22771 38.1485 4.19152C38.2192 4.15533 38.2976 4.13669 38.3771 4.13722ZM58.586 33.0335C58.8506 33.0335 59.0734 33.2484 59.0734 33.5172C59.075 33.5938 59.057 33.6696 59.0213 33.7374C58.9855 33.8053 58.933 33.8631 58.8687 33.9054V33.9113C58.8205 33.9412 58.7724 33.9711 58.7121 33.9831C58.6711 33.9953 58.6285 34.0014 58.5857 34.001C58.4471 34.001 58.321 33.9473 58.2306 33.8576C58.1856 33.8081 58.149 33.7516 58.1222 33.6905C58.0945 33.6165 58.0853 33.537 58.0954 33.4587C58.1055 33.3805 58.1347 33.3058 58.1803 33.2412C58.2259 33.1765 58.2867 33.1239 58.3573 33.0877C58.428 33.0515 58.5065 33.0329 58.586 33.0335ZM53.0313 34.3953C53.3022 34.3953 53.525 34.6105 53.525 34.8852C53.525 35.0942 53.3926 35.2733 53.2 35.3331C53.1879 35.339 53.1758 35.3452 53.164 35.3452C53.1213 35.3594 53.0767 35.3674 53.0316 35.3689C52.9451 35.3687 52.8601 35.346 52.7852 35.3031C52.7102 35.2601 52.6479 35.1984 52.6045 35.1241C52.5986 35.1004 52.5865 35.0763 52.5744 35.0523C52.5564 34.9986 52.5383 34.9447 52.5383 34.8852C52.538 34.8208 52.5505 34.757 52.5751 34.6974C52.5998 34.6379 52.6361 34.5838 52.6819 34.5382C52.7278 34.4926 52.7822 34.4566 52.8422 34.432C52.9022 34.4075 52.9665 34.395 53.0313 34.3953ZM47.0552 36.3305C47.0735 36.217 47.132 36.1136 47.2203 36.0392C47.3086 35.9647 47.4208 35.924 47.5367 35.9245C47.8076 35.9245 48.0303 36.1397 48.0303 36.4144C48.0303 36.6354 47.8799 36.8266 47.6693 36.8802C47.6263 36.8924 47.5817 36.8985 47.537 36.8981C47.4708 36.8981 47.4047 36.8861 47.3503 36.8562C47.2882 36.832 47.2319 36.795 47.1852 36.7476C47.1385 36.7003 47.1025 36.6437 47.0794 36.5815C47.0548 36.5292 47.0424 36.4721 47.0434 36.4144C47.0434 36.3842 47.0434 36.3604 47.0552 36.3305Z" fill="#0C0C0C"/>
</g>
<defs>
<clipPath id="clip0_868_5163">
<rect width="68" height="73" fill="white"/>
</clipPath>
</defs>
</svg>
