<svg width="32" height="32" viewBox="0 0 32 32" fill="none" xmlns="http://www.w3.org/2000/svg">
<path d="M15 7H17C17.5523 7 18 7.44772 18 8V8.56879C18 8.99659 18.2871 9.36825 18.6822 9.53228C19.0775 9.69638 19.5377 9.63384 19.8403 9.33123L20.2426 8.92891C20.6331 8.53838 21.2663 8.53838 21.6568 8.92891L23.071 10.3431C23.4616 10.7336 23.4615 11.3668 23.071 11.7573L22.6688 12.1596C22.3661 12.4622 22.3036 12.9225 22.4677 13.3177C22.6317 13.7129 23.0034 14 23.4313 14L24 14C24.5523 14 25 14.4477 25 15V17C25 17.5523 24.5523 18 24 18H23.4312C23.0034 18 22.6318 18.2871 22.4677 18.6822C22.3036 19.0775 22.3661 19.5377 22.6688 19.8403L23.071 20.2426C23.4616 20.6331 23.4616 21.2663 23.071 21.6568L21.6568 23.071C21.2663 23.4616 20.6331 23.4616 20.2426 23.071L19.8403 22.6688C19.5377 22.3661 19.0775 22.3036 18.6822 22.4677C18.2871 22.6318 18 23.0034 18 23.4312V24C18 24.5523 17.5523 25 17 25H15C14.4477 25 14 24.5523 14 24V23.4313C14 23.0034 13.7129 22.6317 13.3177 22.4677C12.9225 22.3036 12.4622 22.3661 12.1596 22.6688L11.7573 23.071C11.3668 23.4616 10.7336 23.4616 10.3431 23.071L8.92889 21.6568C8.53837 21.2663 8.53837 20.6331 8.92889 20.2426L9.33123 19.8403C9.63384 19.5377 9.69638 19.0775 9.53228 18.6822C9.36825 18.2871 8.99659 18 8.56879 18H8C7.44772 18 7 17.5523 7 17V15C7 14.4477 7.44772 14 8 14L8.56877 14C8.99658 14 9.36825 13.7129 9.53229 13.3178C9.6964 12.9225 9.63386 12.4623 9.33123 12.1597L8.92891 11.7573C8.53838 11.3668 8.53838 10.7336 8.92891 10.3431L10.3431 8.92891C10.7336 8.53839 11.3668 8.53839 11.7573 8.92891L12.1597 9.33123C12.4623 9.63386 12.9225 9.6964 13.3178 9.53229C13.7129 9.36825 14 8.99658 14 8.56876V8C14 7.44772 14.4477 7 15 7Z" stroke="#292929"/>
<path d="M18 16C18 17.1046 17.1046 18 16 18C14.8954 18 14 17.1046 14 16C14 14.8954 14.8954 14 16 14C17.1046 14 18 14.8954 18 16Z" stroke="#292929"/>
</svg>
