<svg width="16" height="16" viewBox="0 0 16 16" fill="none" xmlns="http://www.w3.org/2000/svg">
<path d="M12.6665 10C14.1393 10 15.3332 11.1939 15.3332 12.6667V14H13.9998M10.6665 7.24931C11.8167 6.95329 12.6665 5.90922 12.6665 4.66666C12.6665 3.4241 11.8167 2.38003 10.6665 2.084M8.6665 4.66667C8.6665 6.13943 7.4726 7.33333 5.99984 7.33333C4.52708 7.33333 3.33317 6.13943 3.33317 4.66667C3.33317 3.19391 4.52708 2 5.99984 2C7.4726 2 8.6665 3.19391 8.6665 4.66667ZM3.33317 10H8.6665C10.1393 10 11.3332 11.1939 11.3332 12.6667V14H0.666504V12.6667C0.666504 11.1939 1.86041 10 3.33317 10Z" stroke="#292929" stroke-width="0.666667" stroke-linecap="round" stroke-linejoin="round"/>
</svg>
