<svg width="24" height="24" viewBox="0 0 24 24" fill="none" xmlns="http://www.w3.org/2000/svg">
<path d="M5.4308 11.9682L11.3648 15.5045C11.6802 15.6925 12.0733 15.6925 12.3887 15.5045L21.9727 9.79303C22.2981 9.59913 22.2981 9.12791 21.9727 8.93401L12.3887 3.22254C12.0733 3.03457 11.6802 3.03457 11.3648 3.22254L1.78086 8.934C1.45548 9.12791 1.45548 9.59913 1.78086 9.79303L5.4308 11.9682ZM5.4308 11.9682L5.4308 18.2116C5.4308 18.5536 5.60566 18.872 5.89435 19.0555L10.8424 22.2007C11.4771 22.6042 12.2846 22.6175 12.9322 22.235L18.3242 19.0511C18.6288 18.8712 18.8157 18.5438 18.8157 18.19L18.8157 11.9682" stroke="#292929"/>
</svg>
