<svg width="25" height="25" viewBox="0 0 25 25" fill="none" xmlns="http://www.w3.org/2000/svg">
<path d="M17.5 16.5V20.5C17.5 20.7652 17.3946 21.0196 17.2071 21.2071C17.0196 21.3946 16.7652 21.5 16.5 21.5H4.5C4.23478 21.5 3.98043 21.3946 3.79289 21.2071C3.60536 21.0196 3.5 20.7652 3.5 20.5V4.5C3.5 4.23478 3.60536 3.98043 3.79289 3.79289C3.98043 3.60536 4.23478 3.5 4.5 3.5H16.5C16.7652 3.5 17.0196 3.60536 17.2071 3.79289C17.3946 3.98043 17.5 4.23478 17.5 4.5V10.5" stroke="#292929" stroke-linecap="round" stroke-linejoin="round"/>
<path d="M7.5 6.5C7.5 6.76522 7.60536 7.01957 7.79289 7.20711C7.98043 7.39464 8.23478 7.5 8.5 7.5H12.5C12.7652 7.5 13.0196 7.39464 13.2071 7.20711C13.3946 7.01957 13.5 6.76522 13.5 6.5V3.5H7.5V6.5ZM21.21 11.19L19.81 9.79C19.6231 9.60677 19.3718 9.50414 19.11 9.50414C18.8482 9.50414 18.5969 9.60677 18.41 9.79L13.5 14.7V17.5H16.3L21.21 12.59C21.3932 12.4031 21.4959 12.1518 21.4959 11.89C21.4959 11.6282 21.3932 11.3769 21.21 11.19Z" stroke="#292929" stroke-linecap="round" stroke-linejoin="round"/>
</svg>
